<svg xmlns="http://www.w3.org/2000/svg" viewBox="0 0 512 512">
  <defs>
    <linearGradient id="bg" x1="0%" y1="0%" x2="100%" y2="100%">
      <stop offset="0%" stop-color="#102a63" />
      <stop offset="100%" stop-color="#28488c" />
    </linearGradient>
    <linearGradient id="cloud" x1="0%" y1="0%" x2="100%" y2="100%">
      <stop offset="0%" stop-color="#eef4ff" />
      <stop offset="100%" stop-color="#b8c9f1" />
    </linearGradient>
  </defs>
  <rect width="512" height="512" rx="120" fill="url(#bg)" />
  <path
    d="M184 122c24 0 46 12 58 31-9-2-18-2-27 0-27 5-47 28-47 56 0 6 1 13 3 18-35-6-62-36-62-72 0-18 7-35 20-48s34-21 55-21z"
    fill="#fff2b5"
    opacity="0.96"
  />
  <g fill="url(#cloud)">
    <circle cx="250" cy="278" r="64" />
    <circle cx="196" cy="300" r="48" />
    <circle cx="308" cy="302" r="52" />
    <rect x="150" y="296" width="220" height="68" rx="34" />
  </g>
</svg>
